<svg width="1366" height="651" xmlns="http://www.w3.org/2000/svg"><g><path d="M-27,-49L-42,127L-33,55Z" fill="#e6f5b2" stroke="#e6f5b2"/><path d="M-27,-49L-33,55L16,-42Z" fill="#f2fab1" stroke="#f2fab1"/><path d="M-27,-49L16,-42L170,-44Z" fill="#f0f9b1" stroke="#f0f9b1"/><path d="M-27,-49L170,-44L224,-50Z" fill="#e7f6b2" stroke="#e7f6b2"/><path d="M-27,-49L224,-50L469,-73Z" fill="#dbf1b2" stroke="#dbf1b2"/><path d="M16,-42L-33,55L40,69Z" fill="#e5f5b2" stroke="#e5f5b2"/><path d="M16,-42L40,69L170,-44Z" fill="#e6f5b2" stroke="#e6f5b2"/><path d="M170,-44L40,69L150,77Z" fill="#d6efb4" stroke="#d6efb4"/><path d="M170,-44L150,77L213,71Z" fill="#cfecb4" stroke="#cfecb4"/><path d="M170,-44L213,71L224,-50Z" fill="#d7f0b3" stroke="#d7f0b3"/><path d="M224,-50L213,71L284,-44Z" fill="#d2eeb4" stroke="#d2eeb4"/><path d="M224,-50L284,-44L469,-73Z" fill="#cfecb3" stroke="#cfecb3"/><path d="M284,-44L213,71L323,26Z" fill="#c8e9b5" stroke="#c8e9b5"/><path d="M284,-44L323,26L396,-20Z" fill="#c8eab4" stroke="#c8eab4"/><path d="M284,-44L396,-20L469,-73Z" fill="#c8eab4" stroke="#c8eab4"/><path d="M396,-20L323,26L380,65Z" fill="#bbe4b6" stroke="#bbe4b6"/><path d="M396,-20L380,65L522,70Z" fill="#afe0b7" stroke="#afe0b7"/><path d="M396,-20L522,70L469,-73Z" fill="#b8e3b6" stroke="#b8e3b6"/><path d="M469,-73L522,70L576,-65Z" fill="#b6dfb6" stroke="#b6dfb6"/><path d="M469,-73L576,-65L881,-80Z" fill="#aed6b4" stroke="#aed6b4"/><path d="M576,-65L522,70L569,61Z" fill="#a8d8b6" stroke="#a8d8b6"/><path d="M576,-65L569,61L656,-18Z" fill="#abd7b6" stroke="#abd7b6"/><path d="M576,-65L656,-18L751,-44Z" fill="#add5b5" stroke="#add5b5"/><path d="M576,-65L751,-44L881,-80Z" fill="#a6ceb4" stroke="#a6ceb4"/><path d="M656,-18L569,61L678,59Z" fill="#9dd0b7" stroke="#9dd0b7"/><path d="M656,-18L678,59L751,-44Z" fill="#a1ceb5" stroke="#a1ceb5"/><path d="M751,-44L678,59L798,25Z" fill="#99c9b6" stroke="#99c9b6"/><path d="M751,-44L798,25L881,-80Z" fill="#9ec8b4" stroke="#9ec8b4"/><path d="M881,-80L798,25L829,59Z" fill="#93c2b5" stroke="#93c2b5"/><path d="M881,-80L829,59L941,-75Z" fill="#97c1b4" stroke="#97c1b4"/><path d="M881,-80L941,-75L1127,-73Z" fill="#8fb9b3" stroke="#8fb9b3"/><path d="M941,-75L829,59L963,79Z" fill="#87bab5" stroke="#87bab5"/><path d="M941,-75L963,79L1021,35Z" fill="#83b5b5" stroke="#83b5b5"/><path d="M941,-75L1021,35L1030,-12Z" fill="#89b6b4" stroke="#89b6b4"/><path d="M941,-75L1030,-12L1127,-73Z" fill="#8bb5b3" stroke="#8bb5b3"/><path d="M1030,-12L1021,35L1147,76Z" fill="#76abb5" stroke="#76abb5"/><path d="M1030,-12L1147,76L1181,-12Z" fill="#75a8b5" stroke="#75a8b5"/><path d="M1030,-12L1181,-12L1127,-73Z" fill="#82adb4" stroke="#82adb4"/><path d="M1127,-73L1181,-12L1286,-31Z" fill="#80a7b3" stroke="#80a7b3"/><path d="M1127,-73L1286,-31L1385,-46Z" fill="#80a1b3" stroke="#80a1b3"/><path d="M1127,-73L1385,-46L1453,-46Z" fill="#809cb2" stroke="#809cb2"/><path d="M1181,-12L1147,76L1226,33Z" fill="#6fa1b4" stroke="#6fa1b4"/><path d="M1181,-12L1226,33L1286,-31Z" fill="#78a1b4" stroke="#78a1b4"/><path d="M1286,-31L1226,33L1307,61Z" fill="#719bb4" stroke="#719bb4"/><path d="M1286,-31L1307,61L1385,-46Z" fill="#7899b3" stroke="#7899b3"/><path d="M1385,-46L1307,61L1426,69Z" fill="#7091b4" stroke="#7091b4"/><path d="M1385,-46L1426,69L1453,-46Z" fill="#7991b3" stroke="#7991b3"/><path d="M1453,-46L1426,69L1481,62Z" fill="#708ab3" stroke="#708ab3"/><path d="M1453,-46L1481,62L1508,137Z" fill="#6a86b4" stroke="#6a86b4"/><path d="M-33,55L-42,127L25,129Z" fill="#d5efb4" stroke="#d5efb4"/><path d="M-33,55L25,129L40,69Z" fill="#d6efb3" stroke="#d6efb3"/><path d="M40,69L25,129L151,101Z" fill="#cbebb5" stroke="#cbebb5"/><path d="M40,69L151,101L150,77Z" fill="#cbebb4" stroke="#cbebb4"/><path d="M150,77L151,101L213,71Z" fill="#c4e8b5" stroke="#c4e8b5"/><path d="M213,71L151,101L217,136Z" fill="#bce5b6" stroke="#bce5b6"/><path d="M213,71L217,136L293,162Z" fill="#b1e1b7" stroke="#b1e1b7"/><path d="M213,71L293,162L323,26Z" fill="#b6e3b6" stroke="#b6e3b6"/><path d="M323,26L293,162L380,65Z" fill="#b0e0b7" stroke="#b0e0b7"/><path d="M380,65L293,162L387,169Z" fill="#a1dbb8" stroke="#a1dbb8"/><path d="M380,65L387,169L515,152Z" fill="#99d8b9" stroke="#99d8b9"/><path d="M380,65L515,152L522,70Z" fill="#9dd8b8" stroke="#9dd8b8"/><path d="M522,70L515,152L580,130Z" fill="#91d0b8" stroke="#91d0b8"/><path d="M522,70L580,130L569,61Z" fill="#97d2b8" stroke="#97d2b8"/><path d="M569,61L580,130L670,101Z" fill="#90ccb8" stroke="#90ccb8"/><path d="M569,61L670,101L678,59Z" fill="#93ccb7" stroke="#93ccb7"/><path d="M678,59L670,101L778,166Z" fill="#84c2b8" stroke="#84c2b8"/><path d="M678,59L778,166L798,25Z" fill="#86c1b7" stroke="#86c1b7"/><path d="M798,25L778,166L829,59Z" fill="#82bdb7" stroke="#82bdb7"/><path d="M829,59L778,166L831,133Z" fill="#78b8b8" stroke="#78b8b8"/><path d="M829,59L831,133L952,133Z" fill="#75b5b7" stroke="#75b5b7"/><path d="M829,59L952,133L963,79Z" fill="#75b2b7" stroke="#75b2b7"/><path d="M963,79L952,133L1040,151Z" fill="#67a9b8" stroke="#67a9b8"/><path d="M963,79L1040,151L1021,35Z" fill="#6daab6" stroke="#6daab6"/><path d="M1021,35L1040,151L1147,76Z" fill="#68a6b6" stroke="#68a6b6"/><path d="M1147,76L1040,151L1107,167Z" fill="#5a9fb7" stroke="#5a9fb7"/><path d="M1147,76L1107,167L1221,138Z" fill="#579ab7" stroke="#579ab7"/><path d="M1147,76L1221,138L1226,33Z" fill="#629bb6" stroke="#629bb6"/><path d="M1226,33L1221,138L1307,61Z" fill="#6397b6" stroke="#6397b6"/><path d="M1307,61L1221,138L1304,165Z" fill="#5890b7" stroke="#5890b7"/><path d="M1307,61L1304,165L1421,161Z" fill="#568ab6" stroke="#568ab6"/><path d="M1307,61L1421,161L1426,69Z" fill="#5e8ab5" stroke="#5e8ab5"/><path d="M1426,69L1421,161L1508,137Z" fill="#5881b6" stroke="#5881b6"/><path d="M1426,69L1508,137L1481,62Z" fill="#6083b5" stroke="#6083b5"/><path d="M-42,127L-66,486L-43,245Z" fill="#afd9b5" stroke="#afd9b5"/><path d="M-42,127L-43,245L25,129Z" fill="#c5e9b5" stroke="#c5e9b5"/><path d="M25,129L-43,245L80,252Z" fill="#b6e3b6" stroke="#b6e3b6"/><path d="M25,129L80,252L151,101Z" fill="#bae4b6" stroke="#bae4b6"/><path d="M151,101L80,252L112,259Z" fill="#acdfb7" stroke="#acdfb7"/><path d="M151,101L112,259L217,136Z" fill="#b0e0b7" stroke="#b0e0b7"/><path d="M217,136L112,259L234,228Z" fill="#a2dbb8" stroke="#a2dbb8"/><path d="M217,136L234,228L293,162Z" fill="#a3dbb8" stroke="#a3dbb8"/><path d="M293,162L234,228L299,211Z" fill="#99d7b9" stroke="#99d7b9"/><path d="M293,162L299,211L370,205Z" fill="#96d6b9" stroke="#96d6b9"/><path d="M293,162L370,205L387,169Z" fill="#95d6b9" stroke="#95d6b9"/><path d="M387,169L370,205L526,246Z" fill="#85d0bb" stroke="#85d0bb"/><path d="M387,169L526,246L515,152Z" fill="#84cebb" stroke="#84cebb"/><path d="M515,152L526,246L603,205Z" fill="#7bc7ba" stroke="#7bc7ba"/><path d="M515,152L603,205L580,130Z" fill="#83c9b9" stroke="#83c9b9"/><path d="M580,130L603,205L670,101Z" fill="#82c6b9" stroke="#82c6b9"/><path d="M670,101L603,205L709,236Z" fill="#76bfba" stroke="#76bfba"/><path d="M670,101L709,236L778,166Z" fill="#74bcb9" stroke="#74bcb9"/><path d="M778,166L709,236L788,259Z" fill="#63b3ba" stroke="#63b3ba"/><path d="M778,166L788,259L889,220Z" fill="#5faeba" stroke="#5faeba"/><path d="M778,166L889,220L831,133Z" fill="#68b1b9" stroke="#68b1b9"/><path d="M831,133L889,220L952,133Z" fill="#66adb8" stroke="#66adb8"/><path d="M952,133L889,220L970,191Z" fill="#5ca7b9" stroke="#5ca7b9"/><path d="M952,133L970,191L1040,151Z" fill="#5ea6b8" stroke="#5ea6b8"/><path d="M1040,151L970,191L1067,192Z" fill="#55a0b8" stroke="#55a0b8"/><path d="M1040,151L1067,192L1107,167Z" fill="#539db8" stroke="#539db8"/><path d="M1107,167L1067,192L1094,253Z" fill="#4998b9" stroke="#4998b9"/><path d="M1107,167L1094,253L1228,231Z" fill="#4192b9" stroke="#4192b9"/><path d="M1107,167L1228,231L1221,138Z" fill="#4993b8" stroke="#4993b8"/><path d="M1221,138L1228,231L1304,165Z" fill="#4a8db8" stroke="#4a8db8"/><path d="M1304,165L1228,231L1300,253Z" fill="#4087b9" stroke="#4087b9"/><path d="M1304,165L1300,253L1397,219Z" fill="#4183b8" stroke="#4183b8"/><path d="M1304,165L1397,219L1421,161Z" fill="#4982b7" stroke="#4982b7"/><path d="M1421,161L1397,219L1485,250Z" fill="#427ab8" stroke="#427ab8"/><path d="M1421,161L1485,250L1508,137Z" fill="#487ab7" stroke="#487ab7"/><path d="M1508,137L1485,250L1485,326Z" fill="#3c71b8" stroke="#3c71b8"/><path d="M1508,137L1485,326L1499,487Z" fill="#2d62b7" stroke="#2d62b7"/><path d="M1508,137L1499,487L1511,557Z" fill="#1e53b7" stroke="#1e53b7"/><path d="M-43,245L-66,486L-16,319Z" fill="#a2cdb5" stroke="#a2cdb5"/><path d="M-43,245L-16,319L36,300Z" fill="#aad6b6" stroke="#aad6b6"/><path d="M-43,245L36,300L80,252Z" fill="#aad9b6" stroke="#aad9b6"/><path d="M80,252L36,300L112,259Z" fill="#a3d6b7" stroke="#a3d6b7"/><path d="M112,259L36,300L127,346Z" fill="#9bcfb7" stroke="#9bcfb7"/><path d="M112,259L127,346L249,311Z" fill="#92cbb8" stroke="#92cbb8"/><path d="M112,259L249,311L234,228Z" fill="#95d0b8" stroke="#95d0b8"/><path d="M234,228L249,311L299,211Z" fill="#90d0b9" stroke="#90d0b9"/><path d="M299,211L249,311L301,336Z" fill="#87c9b9" stroke="#87c9b9"/><path d="M299,211L301,336L381,329Z" fill="#80c6b9" stroke="#80c6b9"/><path d="M299,211L381,329L370,205Z" fill="#86cdba" stroke="#86cdba"/><path d="M370,205L381,329L477,304Z" fill="#79c4ba" stroke="#79c4ba"/><path d="M370,205L477,304L526,246Z" fill="#79c7bb" stroke="#79c7bb"/><path d="M526,246L477,304L612,281Z" fill="#6cbbba" stroke="#6cbbba"/><path d="M526,246L612,281L603,205Z" fill="#6fbebb" stroke="#6fbebb"/><path d="M603,205L612,281L709,236Z" fill="#6ab9bb" stroke="#6ab9bb"/><path d="M709,236L612,281L684,348Z" fill="#5eaeba" stroke="#5eaeba"/><path d="M709,236L684,348L792,285Z" fill="#58a9ba" stroke="#58a9ba"/><path d="M709,236L792,285L788,259Z" fill="#5babba" stroke="#5babba"/><path d="M788,259L792,285L889,220Z" fill="#57a7ba" stroke="#57a7ba"/><path d="M889,220L792,285L883,328Z" fill="#4fa0b9" stroke="#4fa0b9"/><path d="M889,220L883,328L930,345Z" fill="#4799b9" stroke="#4799b9"/><path d="M889,220L930,345L970,191Z" fill="#4e9eba" stroke="#4e9eba"/><path d="M970,191L930,345L1007,349Z" fill="#4193b9" stroke="#4193b9"/><path d="M970,191L1007,349L1094,253Z" fill="#4294b9" stroke="#4294b9"/><path d="M970,191L1094,253L1067,192Z" fill="#4b9bb9" stroke="#4b9bb9"/><path d="M1094,253L1007,349L1090,395Z" fill="#3285b8" stroke="#3285b8"/><path d="M1094,253L1090,395L1145,298Z" fill="#3184b9" stroke="#3184b9"/><path d="M1094,253L1145,298L1228,231Z" fill="#3789b8" stroke="#3789b8"/><path d="M1228,231L1145,298L1200,344Z" fill="#3281b8" stroke="#3281b8"/><path d="M1228,231L1200,344L1273,327Z" fill="#307cb8" stroke="#307cb8"/><path d="M1228,231L1273,327L1300,253Z" fill="#367eb8" stroke="#367eb8"/><path d="M1300,253L1273,327L1367,288Z" fill="#3277b8" stroke="#3277b8"/><path d="M1300,253L1367,288L1397,219Z" fill="#397ab8" stroke="#397ab8"/><path d="M1397,219L1367,288L1485,250Z" fill="#3974b8" stroke="#3974b8"/><path d="M1485,250L1367,288L1485,326Z" fill="#326bb7" stroke="#326bb7"/><path d="M-16,319L-66,486L-12,373Z" fill="#99c5b5" stroke="#99c5b5"/><path d="M-16,319L-12,373L36,300Z" fill="#a0ceb5" stroke="#a0ceb5"/><path d="M36,300L-12,373L111,400Z" fill="#96c7b6" stroke="#96c7b6"/><path d="M36,300L111,400L127,346Z" fill="#92c7b6" stroke="#92c7b6"/><path d="M127,346L111,400L215,437Z" fill="#82bcb7" stroke="#82bcb7"/><path d="M127,346L215,437L249,311Z" fill="#82bfb7" stroke="#82bfb7"/><path d="M249,311L215,437L301,336Z" fill="#7cbdb8" stroke="#7cbdb8"/><path d="M301,336L215,437L314,405Z" fill="#73b6b8" stroke="#73b6b8"/><path d="M301,336L314,405L381,329Z" fill="#74bab9" stroke="#74bab9"/><path d="M381,329L314,405L421,373Z" fill="#6cb6b9" stroke="#6cb6b9"/><path d="M381,329L421,373L477,304Z" fill="#6cb9ba" stroke="#6cb9ba"/><path d="M477,304L421,373L524,408Z" fill="#62b2ba" stroke="#62b2ba"/><path d="M477,304L524,408L572,405Z" fill="#5babba" stroke="#5babba"/><path d="M477,304L572,405L612,281Z" fill="#61b0ba" stroke="#61b0ba"/><path d="M612,281L572,405L684,348Z" fill="#57a8ba" stroke="#57a8ba"/><path d="M684,348L572,405L696,412Z" fill="#4c9eba" stroke="#4c9eba"/><path d="M684,348L696,412L756,415Z" fill="#4698b9" stroke="#4698b9"/><path d="M684,348L756,415L792,285Z" fill="#4b9db9" stroke="#4b9db9"/><path d="M792,285L756,415L860,372Z" fill="#4597b9" stroke="#4597b9"/><path d="M792,285L860,372L883,328Z" fill="#4698b9" stroke="#4698b9"/><path d="M883,328L860,372L930,345Z" fill="#3f90b9" stroke="#3f90b9"/><path d="M930,345L860,372L923,416Z" fill="#388ab9" stroke="#388ab9"/><path d="M930,345L923,416L1015,375Z" fill="#3385b9" stroke="#3385b9"/><path d="M930,345L1015,375L1007,349Z" fill="#3587b9" stroke="#3587b9"/><path d="M1007,349L1015,375L1090,395Z" fill="#2c7fb8" stroke="#2c7fb8"/><path d="M1145,298L1090,395L1200,344Z" fill="#287bb8" stroke="#287bb8"/><path d="M1200,344L1090,395L1191,427Z" fill="#1f72b8" stroke="#1f72b8"/><path d="M1200,344L1191,427L1309,417Z" fill="#1e6bb8" stroke="#1e6bb8"/><path d="M1200,344L1309,417L1273,327Z" fill="#246eb8" stroke="#246eb8"/><path d="M1273,327L1309,417L1367,288Z" fill="#276db7" stroke="#276db7"/><path d="M1367,288L1309,417L1413,424Z" fill="#2163b7" stroke="#2163b7"/><path d="M1367,288L1413,424L1485,326Z" fill="#2763b7" stroke="#2763b7"/><path d="M1485,326L1413,424L1467,430Z" fill="#1e58b7" stroke="#1e58b7"/><path d="M1485,326L1467,430L1499,487Z" fill="#1a52b6" stroke="#1a52b6"/><path d="M-12,373L-66,486L41,430Z" fill="#8fbdb5" stroke="#8fbdb5"/><path d="M-12,373L41,430L111,400Z" fill="#8ec0b5" stroke="#8ec0b5"/><path d="M41,430L-66,486L76,466Z" fill="#86b6b5" stroke="#86b6b5"/><path d="M41,430L76,466L111,400Z" fill="#84b9b6" stroke="#84b9b6"/><path d="M111,400L76,466L106,508Z" fill="#7cb3b6" stroke="#7cb3b6"/><path d="M111,400L106,508L215,437Z" fill="#79b2b6" stroke="#79b2b6"/><path d="M215,437L106,508L209,528Z" fill="#6ca9b6" stroke="#6ca9b6"/><path d="M215,437L209,528L286,471Z" fill="#68a9b7" stroke="#68a9b7"/><path d="M215,437L286,471L314,405Z" fill="#6baeb8" stroke="#6baeb8"/><path d="M314,405L286,471L420,463Z" fill="#61aab8" stroke="#61aab8"/><path d="M314,405L420,463L421,373Z" fill="#62adb9" stroke="#62adb9"/><path d="M421,373L420,463L524,408Z" fill="#59aaba" stroke="#59aaba"/><path d="M524,408L420,463L504,525Z" fill="#4d9eba" stroke="#4d9eba"/><path d="M524,408L504,525L579,496Z" fill="#4698b9" stroke="#4698b9"/><path d="M524,408L579,496L572,405Z" fill="#4c9db9" stroke="#4c9db9"/><path d="M572,405L579,496L696,412Z" fill="#4798b9" stroke="#4798b9"/><path d="M696,412L579,496L649,525Z" fill="#3c8eb9" stroke="#3c8eb9"/><path d="M696,412L649,525L743,464Z" fill="#398cb9" stroke="#398cb9"/><path d="M696,412L743,464L756,415Z" fill="#3d8fb9" stroke="#3d8fb9"/><path d="M756,415L743,464L843,500Z" fill="#3386b9" stroke="#3386b9"/><path d="M756,415L843,500L860,372Z" fill="#3688b9" stroke="#3688b9"/><path d="M860,372L843,500L923,416Z" fill="#3083b8" stroke="#3083b8"/><path d="M923,416L843,500L956,501Z" fill="#2579b8" stroke="#2579b8"/><path d="M923,416L956,501L1023,472Z" fill="#2275b8" stroke="#2275b8"/><path d="M923,416L1023,472L1015,375Z" fill="#287bb8" stroke="#287bb8"/><path d="M1015,375L1023,472L1090,395Z" fill="#2477b8" stroke="#2477b8"/><path d="M1090,395L1023,472L1099,478Z" fill="#1b6fb8" stroke="#1b6fb8"/><path d="M1090,395L1099,478L1191,427Z" fill="#196db8" stroke="#196db8"/><path d="M1191,427L1099,478L1230,486Z" fill="#1163b7" stroke="#1163b7"/><path d="M1191,427L1230,486L1309,417Z" fill="#1461b7" stroke="#1461b7"/><path d="M1309,417L1230,486L1308,518Z" fill="#0f58b7" stroke="#0f58b7"/><path d="M1309,417L1308,518L1413,464Z" fill="#1054b7" stroke="#1054b7"/><path d="M1309,417L1413,464L1413,424Z" fill="#1657b7" stroke="#1657b7"/><path d="M1413,424L1413,464L1467,430Z" fill="#1552b7" stroke="#1552b7"/><path d="M1467,430L1413,464L1499,487Z" fill="#114cb6" stroke="#114cb6"/><path d="M-66,486L-66,694L-21,570Z" fill="#7da3b3" stroke="#7da3b3"/><path d="M-66,486L-21,570L76,466Z" fill="#7fafb4" stroke="#7fafb4"/><path d="M76,466L-21,570L106,508Z" fill="#77abb5" stroke="#77abb5"/><path d="M106,508L-21,570L12,604Z" fill="#73a3b4" stroke="#73a3b4"/><path d="M106,508L12,604L126,558Z" fill="#6da2b5" stroke="#6da2b5"/><path d="M106,508L126,558L209,528Z" fill="#68a3b6" stroke="#68a3b6"/><path d="M209,528L126,558L194,603Z" fill="#619cb6" stroke="#619cb6"/><path d="M209,528L194,603L287,573Z" fill="#5b99b6" stroke="#5b99b6"/><path d="M209,528L287,573L286,471Z" fill="#5c9fb7" stroke="#5c9fb7"/><path d="M286,471L287,573L370,558Z" fill="#549bb8" stroke="#549bb8"/><path d="M286,471L370,558L420,463Z" fill="#559fb8" stroke="#559fb8"/><path d="M420,463L370,558L474,566Z" fill="#4897b9" stroke="#4897b9"/><path d="M420,463L474,566L504,525Z" fill="#4596b9" stroke="#4596b9"/><path d="M504,525L474,566L618,593Z" fill="#3989b8" stroke="#3989b8"/><path d="M504,525L618,593L579,496Z" fill="#388ab9" stroke="#388ab9"/><path d="M579,496L618,593L649,525Z" fill="#3386b9" stroke="#3386b9"/><path d="M649,525L618,593L705,613Z" fill="#2d7bb8" stroke="#2d7bb8"/><path d="M649,525L705,613L794,553Z" fill="#2878b8" stroke="#2878b8"/><path d="M649,525L794,553L743,464Z" fill="#2d80b8" stroke="#2d80b8"/><path d="M743,464L794,553L843,500Z" fill="#297cb8" stroke="#297cb8"/><path d="M843,500L794,553L835,588Z" fill="#1f72b8" stroke="#1f72b8"/><path d="M843,500L835,588L915,570Z" fill="#1a6eb7" stroke="#1a6eb7"/><path d="M843,500L915,570L956,501Z" fill="#1c70b8" stroke="#1c70b8"/><path d="M956,501L915,570L1004,600Z" fill="#1265b7" stroke="#1265b7"/><path d="M956,501L1004,600L1023,472Z" fill="#1368b7" stroke="#1368b7"/><path d="M1023,472L1004,600L1099,478Z" fill="#1065b7" stroke="#1065b7"/><path d="M1099,478L1004,600L1139,604Z" fill="#075ab7" stroke="#075ab7"/><path d="M1099,478L1139,604L1206,584Z" fill="#0155b6" stroke="#0155b6"/><path d="M1099,478L1206,584L1230,486Z" fill="#075ab7" stroke="#075ab7"/><path d="M1230,486L1206,584L1289,585Z" fill="#004eb6" stroke="#004eb6"/><path d="M1230,486L1289,585L1308,518Z" fill="#044fb7" stroke="#044fb7"/><path d="M1308,518L1289,585L1387,572Z" fill="#0045b6" stroke="#0045b6"/><path d="M1308,518L1387,572L1413,464Z" fill="#0649b6" stroke="#0649b6"/><path d="M1413,464L1387,572L1499,487Z" fill="#0846b6" stroke="#0846b6"/><path d="M1499,487L1387,572L1511,557Z" fill="#023db6" stroke="#023db6"/><path d="M-21,570L-66,694L12,604Z" fill="#7a9bb3" stroke="#7a9bb3"/><path d="M12,604L-66,694L66,708Z" fill="#7692b3" stroke="#7692b3"/><path d="M12,604L66,708L143,656Z" fill="#6e90b4" stroke="#6e90b4"/><path d="M12,604L143,656L126,558Z" fill="#6b98b5" stroke="#6b98b5"/><path d="M126,558L143,656L194,603Z" fill="#6495b5" stroke="#6495b5"/><path d="M194,603L143,656L214,664Z" fill="#618eb5" stroke="#618eb5"/><path d="M194,603L214,664L287,573Z" fill="#5b91b6" stroke="#5b91b6"/><path d="M287,573L214,664L344,667Z" fill="#558ab6" stroke="#558ab6"/><path d="M287,573L344,667L370,558Z" fill="#4e8eb7" stroke="#4e8eb7"/><path d="M370,558L344,667L414,645Z" fill="#4988b7" stroke="#4988b7"/><path d="M370,558L414,645L474,566Z" fill="#448cb8" stroke="#448cb8"/><path d="M474,566L414,645L498,694Z" fill="#3f82b8" stroke="#3f82b8"/><path d="M474,566L498,694L592,660Z" fill="#3a7cb8" stroke="#3a7cb8"/><path d="M474,566L592,660L618,593Z" fill="#367eb8" stroke="#367eb8"/><path d="M618,593L592,660L703,673Z" fill="#2f71b8" stroke="#2f71b8"/><path d="M618,593L703,673L705,613Z" fill="#2c71b8" stroke="#2c71b8"/><path d="M705,613L703,673L732,684Z" fill="#2868b7" stroke="#2868b7"/><path d="M705,613L732,684L835,588Z" fill="#2469b7" stroke="#2469b7"/><path d="M705,613L835,588L794,553Z" fill="#2270b8" stroke="#2270b8"/><path d="M835,588L732,684L840,677Z" fill="#2062b7" stroke="#2062b7"/><path d="M835,588L840,677L941,643Z" fill="#1a5eb7" stroke="#1a5eb7"/><path d="M835,588L941,643L915,570Z" fill="#1762b7" stroke="#1762b7"/><path d="M915,570L941,643L1004,600Z" fill="#125db7" stroke="#125db7"/><path d="M1004,600L941,643L1046,697Z" fill="#0e52b6" stroke="#0e52b6"/><path d="M1004,600L1046,697L1091,685Z" fill="#0a4bb6" stroke="#0a4bb6"/><path d="M1004,600L1091,685L1139,604Z" fill="#074eb6" stroke="#074eb6"/><path d="M1139,604L1091,685L1192,747Z" fill="#0140b6" stroke="#0140b6"/><path d="M1139,604L1192,747L1249,642Z" fill="#003eb6" stroke="#003eb6"/><path d="M1139,604L1249,642L1206,584Z" fill="#0047b6" stroke="#0047b6"/><path d="M1206,584L1249,642L1289,585Z" fill="#0044b6" stroke="#0044b6"/><path d="M1289,585L1249,642L1326,657Z" fill="#003cb6" stroke="#003cb6"/><path d="M1289,585L1326,657L1387,572Z" fill="#003cb6" stroke="#003cb6"/><path d="M1387,572L1326,657L1382,685Z" fill="#0034b5" stroke="#0034b5"/><path d="M1387,572L1382,685L1455,640Z" fill="#0031b5" stroke="#0031b5"/><path d="M1387,572L1455,640L1511,557Z" fill="#0035b5" stroke="#0035b5"/><path d="M1511,557L1455,640L1452,781Z" fill="#0027b5" stroke="#0027b5"/><path d="M-66,694L-54,757L66,708Z" fill="#7989b3" stroke="#7989b3"/><path d="M66,708L-54,757L79,794Z" fill="#7381b3" stroke="#7381b3"/><path d="M66,708L79,794L120,752Z" fill="#6c7fb4" stroke="#6c7fb4"/><path d="M66,708L120,752L143,656Z" fill="#6a86b4" stroke="#6a86b4"/><path d="M143,656L120,752L204,757Z" fill="#6481b4" stroke="#6481b4"/><path d="M143,656L204,757L214,664Z" fill="#6084b5" stroke="#6084b5"/><path d="M214,664L204,757L344,667Z" fill="#5881b6" stroke="#5881b6"/><path d="M344,667L204,757L334,781Z" fill="#5378b6" stroke="#5378b6"/><path d="M344,667L334,781L400,796Z" fill="#4b72b7" stroke="#4b72b7"/><path d="M344,667L400,796L414,645Z" fill="#4879b7" stroke="#4879b7"/><path d="M414,645L400,796L498,694Z" fill="#4275b8" stroke="#4275b8"/><path d="M498,694L400,796L490,770Z" fill="#3f6cb8" stroke="#3f6cb8"/><path d="M498,694L490,770L579,732Z" fill="#3a6bb8" stroke="#3a6bb8"/><path d="M498,694L579,732L592,660Z" fill="#376fb7" stroke="#376fb7"/><path d="M592,660L579,732L703,673Z" fill="#306ab7" stroke="#306ab7"/><path d="M703,673L579,732L688,783Z" fill="#2d60b7" stroke="#2d60b7"/><path d="M703,673L688,783L732,684Z" fill="#295fb7" stroke="#295fb7"/><path d="M732,684L688,783L780,755Z" fill="#2657b7" stroke="#2657b7"/><path d="M732,684L780,755L840,677Z" fill="#2259b7" stroke="#2259b7"/><path d="M840,677L780,755L875,764Z" fill="#1d51b7" stroke="#1d51b7"/><path d="M840,677L875,764L928,758Z" fill="#194cb6" stroke="#194cb6"/><path d="M840,677L928,758L941,643Z" fill="#1751b6" stroke="#1751b6"/><path d="M941,643L928,758L1046,697Z" fill="#114bb6" stroke="#114bb6"/><path d="M1046,697L928,758L1063,798Z" fill="#0d3eb6" stroke="#0d3eb6"/><path d="M1046,697L1063,798L1104,752Z" fill="#0839b6" stroke="#0839b6"/><path d="M1046,697L1104,752L1091,685Z" fill="#073fb6" stroke="#073fb6"/><path d="M1091,685L1104,752L1192,747Z" fill="#0238b6" stroke="#0238b6"/><path d="M1249,642L1192,747L1283,767Z" fill="#0030b5" stroke="#0030b5"/><path d="M1249,642L1283,767L1326,657Z" fill="#0031b5" stroke="#0031b5"/><path d="M1326,657L1283,767L1382,685Z" fill="#002bb5" stroke="#002bb5"/><path d="M1382,685L1283,767L1422,774Z" fill="#0021b5" stroke="#0021b5"/><path d="M1382,685L1422,774L1455,640Z" fill="#0024b5" stroke="#0024b5"/><path d="M1455,640L1422,774L1452,781Z" fill="#001cb4" stroke="#001cb4"/><path d="M79,794L400,796L334,781Z" fill="#566fb5" stroke="#566fb5"/><path d="M79,794L334,781L204,757Z" fill="#5e75b5" stroke="#5e75b5"/><path d="M79,794L204,757L120,752Z" fill="#6779b4" stroke="#6779b4"/><path d="M400,796L1063,798L688,783Z" fill="#2850b6" stroke="#2850b6"/><path d="M400,796L688,783L490,770Z" fill="#3962b7" stroke="#3962b7"/><path d="M490,770L688,783L579,732Z" fill="#3460b7" stroke="#3460b7"/><path d="M688,783L1063,798L875,764Z" fill="#1944b6" stroke="#1944b6"/><path d="M688,783L875,764L780,755Z" fill="#224eb6" stroke="#224eb6"/><path d="M875,764L1063,798L928,758Z" fill="#123eb6" stroke="#123eb6"/><path d="M1063,798L1452,781L1283,767Z" fill="#0022b5" stroke="#0022b5"/><path d="M1063,798L1283,767L1192,747Z" fill="#002cb5" stroke="#002cb5"/><path d="M1063,798L1192,747L1104,752Z" fill="#0332b5" stroke="#0332b5"/><path d="M1283,767L1452,781L1422,774Z" fill="#001ab4" stroke="#001ab4"/></g></svg>